<svg width="266" height="60" viewBox="0 0 266 60" fill="none" xmlns="http://www.w3.org/2000/svg">
    <path d="M26.8329 0.303711C26.8329 0.303711 25.1515 17.6042 57.9797 40.2121L61.494 37.7652V30.2315L58.5723 26.3096V16.5428L35.6877 13.9373L32.7866 13.0206L31.4153 0.303711H26.8329Z"
          fill="#A4000F"/>
    <path d="M17.2266 0H21.5058C21.5058 0 24.4069 22.9525 58.0275 40.2116C58.0275 40.2116 30.8429 29.6728 17.2541 13.9369L17.2266 0Z"
          fill="#F8CA38"/>
    <path d="M8.83496 24.3236H17.5381V19.8916C17.5381 19.8916 22.1206 29.6722 57.8843 40.2111C57.8843 40.2111 15.2435 33.9457 8.83496 24.3236Z"
          fill="#BBBBBB"/>
    <path d="M0 24.4678C0 24.4678 13.892 38.8251 58.0212 40.1968L47.2783 46.6138L44.2739 50.8872L45.9553 59.9993L36.5217 56.5185L25.3447 38.515L19.1429 37.9084L16.9309 41.4236L10.6809 38.3633L8.84789 33.4764L0 24.4678Z"
          fill="#BBBBBB"/>
    <path d="M55.6992 37.1172L55.458 40.0803L57.9801 40.2112L59.3927 37.8201L55.6992 37.1172Z" fill="#A4000F"/>
    <path fill-rule="evenodd" clip-rule="evenodd"
          d="M53.6922 39.4881L56.3383 40.9907L55.6492 38.1578L57.9852 36.2554L54.905 36.0073L53.7059 33.3398L52.5069 36.0073L49.4336 36.2554L51.7627 38.1578L51.0736 40.9907L53.6922 39.4881Z"
          fill="white"/>
    <path d="M78.0333 28.7519V29.0752H71.8378V28.7519H72.231C72.5747 28.7519 72.8514 28.6907 73.0611 28.5684C73.2126 28.4868 73.3291 28.347 73.4107 28.1489C73.4747 28.0091 73.5068 27.6421 73.5068 27.0479V19.2533C73.5068 18.6474 73.4747 18.2688 73.4107 18.1173C73.3466 17.9658 73.2155 17.8348 73.0174 17.7241C72.8252 17.6076 72.563 17.5493 72.231 17.5493H71.8378V17.226H78.0333V17.5493H77.64C77.2963 17.5493 77.0196 17.6105 76.8099 17.7328C76.6584 17.8144 76.539 17.9542 76.4516 18.1523C76.3875 18.2921 76.3555 18.6591 76.3555 19.2533V27.0479C76.3555 27.6538 76.3875 28.0324 76.4516 28.1839C76.5215 28.3353 76.6526 28.4693 76.8448 28.5858C77.0429 28.6965 77.308 28.7519 77.64 28.7519H78.0333ZM82.9093 17.226L88.7552 24.5749V19.4805C88.7552 18.7698 88.6533 18.2892 88.4494 18.0387C88.1697 17.7008 87.7008 17.5377 87.0425 17.5493V17.226H90.9573V17.5493C90.4563 17.6134 90.1184 17.6979 89.9436 17.8027C89.7747 17.9018 89.6407 18.0678 89.5417 18.3008C89.4485 18.528 89.4019 18.9212 89.4019 19.4805V29.3461H89.1047L81.0917 19.4805V27.0129C81.0917 27.6945 81.2461 28.1548 81.5548 28.3936C81.8694 28.6325 82.2277 28.7519 82.6296 28.7519H82.9093V29.0752H78.7061V28.7519C79.3586 28.7461 79.813 28.6121 80.0693 28.3499C80.3256 28.0878 80.4538 27.6421 80.4538 27.0129V18.6503L80.2004 18.3358C79.9499 18.0212 79.7285 17.8144 79.5363 17.7153C79.344 17.6163 79.0673 17.561 78.7061 17.5493V17.226H82.9093ZM99.7917 16.9551L99.8879 20.9048H99.5296C99.3607 19.9145 98.9441 19.1193 98.28 18.5193C97.6217 17.9134 96.9081 17.6105 96.1391 17.6105C95.5449 17.6105 95.073 17.7707 94.7235 18.0911C94.3798 18.4057 94.2079 18.7698 94.2079 19.1834C94.2079 19.4455 94.2691 19.6786 94.3914 19.8825C94.5604 20.1563 94.8313 20.4271 95.2041 20.6951C95.4779 20.8874 96.11 21.2282 97.1003 21.7175C98.4868 22.3991 99.4218 23.0428 99.9053 23.6487C100.383 24.2545 100.622 24.9478 100.622 25.7284C100.622 26.7188 100.234 27.5722 99.4597 28.2887C98.6907 28.9995 97.712 29.3548 96.5236 29.3548C96.1508 29.3548 95.7983 29.317 95.4663 29.2412C95.1342 29.1655 94.7177 29.0228 94.2167 28.813C93.9371 28.6965 93.7069 28.6383 93.5264 28.6383C93.3749 28.6383 93.2147 28.6965 93.0457 28.813C92.8768 28.9296 92.7399 29.1072 92.635 29.3461H92.3117V24.872H92.635C92.8914 26.1304 93.3836 27.0916 94.1118 27.7557C94.8458 28.414 95.6352 28.7431 96.4799 28.7431C97.1324 28.7431 97.6509 28.5655 98.0353 28.2101C98.4257 27.8547 98.6208 27.4411 98.6208 26.9693C98.6208 26.6896 98.5451 26.4187 98.3936 26.1566C98.248 25.8944 98.0237 25.6468 97.7208 25.4138C97.4178 25.175 96.8819 24.8662 96.1129 24.4876C95.0352 23.9574 94.2604 23.506 93.7885 23.1331C93.3166 22.7603 92.9525 22.3438 92.6962 21.8835C92.4457 21.4233 92.3205 20.9165 92.3205 20.3631C92.3205 19.4193 92.6671 18.6154 93.3603 17.9513C94.0536 17.2872 94.9274 16.9551 95.9818 16.9551C96.3663 16.9551 96.7392 17.0017 97.1003 17.0949C97.3741 17.1648 97.7062 17.2959 98.0965 17.4881C98.4926 17.6746 98.7694 17.7678 98.9267 17.7678C99.0781 17.7678 99.1975 17.7212 99.2849 17.628C99.3723 17.5347 99.4539 17.3105 99.5296 16.9551H99.7917ZM101.767 17.226H107.883V17.5493H107.578C107.117 17.5493 106.8 17.5988 106.625 17.6979C106.456 17.7911 106.334 17.9221 106.258 18.0911C106.188 18.26 106.153 18.6824 106.153 19.3581V25.1604C106.153 26.2207 106.232 26.9226 106.389 27.2664C106.552 27.6101 106.817 27.8955 107.184 28.1227C107.551 28.3499 108.015 28.4635 108.574 28.4635C109.215 28.4635 109.759 28.3208 110.208 28.0353C110.662 27.7441 111 27.345 111.222 26.8382C111.449 26.3314 111.562 25.4488 111.562 24.1905V19.3581C111.562 18.828 111.507 18.4494 111.396 18.2222C111.286 17.995 111.146 17.8377 110.977 17.7503C110.715 17.6163 110.345 17.5493 109.867 17.5493V17.226H113.965V17.5493H113.721C113.389 17.5493 113.112 17.6163 112.891 17.7503C112.669 17.8843 112.509 18.0853 112.41 18.3532C112.334 18.5397 112.296 18.8746 112.296 19.3581V23.8584C112.296 25.2507 112.203 26.2556 112.017 26.8731C111.836 27.4906 111.39 28.0586 110.68 28.5771C109.969 29.0956 108.999 29.3548 107.77 29.3548C106.745 29.3548 105.952 29.2179 105.393 28.9441C104.63 28.5713 104.091 28.0936 103.776 27.511C103.462 26.9285 103.305 26.1449 103.305 25.1604V19.3581C103.305 18.6766 103.267 18.2542 103.191 18.0911C103.115 17.9221 102.984 17.7882 102.798 17.6891C102.611 17.5901 102.268 17.5435 101.767 17.5493V17.226ZM119.034 23.6749V26.9955C119.034 27.6363 119.071 28.0412 119.147 28.2101C119.229 28.3732 119.369 28.5043 119.567 28.6033C119.765 28.7024 120.135 28.7519 120.676 28.7519V29.0752H114.612V28.7519C115.16 28.7519 115.53 28.7024 115.722 28.6033C115.92 28.4985 116.057 28.3645 116.132 28.2014C116.214 28.0382 116.255 27.6363 116.255 26.9955V19.3057C116.255 18.6649 116.214 18.2629 116.132 18.0998C116.057 17.9309 115.92 17.7969 115.722 17.6979C115.524 17.5988 115.154 17.5493 114.612 17.5493V17.226H120.117C121.55 17.226 122.599 17.325 123.263 17.5231C123.927 17.7212 124.469 18.0882 124.888 18.6241C125.308 19.1543 125.517 19.7776 125.517 20.4941C125.517 21.368 125.203 22.0903 124.574 22.6612C124.172 23.0224 123.61 23.2933 122.887 23.4739L125.736 27.4848C126.109 28.0033 126.374 28.3266 126.531 28.4548C126.77 28.6354 127.047 28.7344 127.361 28.7519V29.0752H123.63L119.811 23.6749H119.034ZM119.034 17.8639V23.0545H119.532C120.341 23.0545 120.947 22.9817 121.349 22.836C121.751 22.6845 122.066 22.4166 122.293 22.0321C122.526 21.6418 122.643 21.1349 122.643 20.5116C122.643 19.6086 122.43 18.9416 122.005 18.5105C121.585 18.0794 120.907 17.8639 119.969 17.8639H119.034ZM134.658 25.7022H130.472L129.974 26.8557C129.811 27.2401 129.729 27.5576 129.729 27.8081C129.729 28.1402 129.863 28.3849 130.131 28.5422C130.289 28.6354 130.676 28.7053 131.294 28.7519V29.0752H127.353V28.7519C127.778 28.6878 128.127 28.513 128.401 28.2276C128.675 27.9363 129.013 27.3392 129.415 26.4362L133.653 16.9813H133.819L138.092 26.6984C138.5 27.6188 138.835 28.1984 139.097 28.4373C139.295 28.6179 139.575 28.7227 139.936 28.7519V29.0752H134.203V28.7519H134.439C134.9 28.7519 135.223 28.6878 135.409 28.5596C135.537 28.4664 135.602 28.3324 135.602 28.1577C135.602 28.0528 135.584 27.945 135.549 27.8343C135.537 27.7819 135.45 27.5635 135.287 27.179L134.658 25.7022ZM134.361 25.0556L132.596 20.9747L130.778 25.0556H134.361ZM144.602 17.226L150.448 24.5749V19.4805C150.448 18.7698 150.346 18.2892 150.142 18.0387C149.863 17.7008 149.394 17.5377 148.735 17.5493V17.226H152.65V17.5493C152.149 17.6134 151.811 17.6979 151.636 17.8027C151.467 17.9018 151.333 18.0678 151.234 18.3008C151.141 18.528 151.095 18.9212 151.095 19.4805V29.3461H150.798L142.784 19.4805V27.0129C142.784 27.6945 142.939 28.1548 143.248 28.3936C143.562 28.6325 143.92 28.7519 144.322 28.7519H144.602V29.0752H140.399V28.7519C141.051 28.7461 141.506 28.6121 141.762 28.3499C142.018 28.0878 142.147 27.6421 142.147 27.0129V18.6503L141.893 18.3358C141.643 18.0212 141.421 17.8144 141.229 17.7153C141.037 17.6163 140.76 17.561 140.399 17.5493V17.226H144.602ZM165.024 16.9551V21.0621H164.683C164.426 19.9902 163.949 19.1688 163.25 18.5979C162.551 18.027 161.758 17.7416 160.873 17.7416C160.133 17.7416 159.454 17.9542 158.837 18.3795C158.219 18.8047 157.768 19.3611 157.482 20.0485C157.115 20.9281 156.932 21.9068 156.932 22.9846C156.932 24.0448 157.066 25.0119 157.334 25.8857C157.602 26.7537 158.021 27.412 158.592 27.8606C159.163 28.3033 159.903 28.5247 160.812 28.5247C161.557 28.5247 162.239 28.3616 162.856 28.0353C163.48 27.7091 164.135 27.1469 164.823 26.3488V27.3712C164.158 28.0645 163.465 28.5684 162.743 28.883C162.026 29.1917 161.187 29.3461 160.226 29.3461C158.962 29.3461 157.838 29.0927 156.853 28.5858C155.874 28.079 155.117 27.3508 154.581 26.4013C154.051 25.4517 153.786 24.441 153.786 23.3691C153.786 22.2389 154.08 21.167 154.669 20.1533C155.263 19.1397 156.061 18.3532 157.063 17.794C158.071 17.2347 159.14 16.9551 160.27 16.9551C161.103 16.9551 161.983 17.1357 162.909 17.4969C163.445 17.7066 163.786 17.8115 163.931 17.8115C164.118 17.8115 164.278 17.7445 164.412 17.6105C164.552 17.4707 164.642 17.2522 164.683 16.9551H165.024ZM170.887 17.9076V22.7312H171.123C171.874 22.7312 172.419 22.4952 172.757 22.0233C173.095 21.5515 173.31 20.8553 173.404 19.9349H173.736V26.1391H173.404C173.334 25.4633 173.185 24.9099 172.958 24.4788C172.737 24.0477 172.477 23.7594 172.18 23.6137C171.883 23.4623 171.452 23.3865 170.887 23.3865V26.7246C170.887 27.377 170.913 27.7761 170.966 27.9217C171.024 28.0674 171.129 28.1868 171.28 28.28C171.432 28.3732 171.676 28.4198 172.014 28.4198H172.722C173.829 28.4198 174.714 28.1635 175.378 27.6508C176.048 27.1382 176.529 26.3576 176.82 25.309H177.144L176.611 29.0752H166.369V28.7519H166.762C167.106 28.7519 167.383 28.6907 167.593 28.5684C167.744 28.4868 167.861 28.347 167.942 28.1489C168.006 28.0091 168.038 27.6421 168.038 27.0479V19.2533C168.038 18.7173 168.024 18.3882 167.995 18.2659C167.936 18.062 167.829 17.9047 167.671 17.794C167.45 17.6309 167.147 17.5493 166.762 17.5493H166.369V17.226H176.287V20.7301H175.955C175.786 19.8737 175.547 19.2591 175.239 18.8863C174.936 18.5134 174.505 18.2396 173.945 18.0649C173.619 17.96 173.007 17.9076 172.11 17.9076H170.887ZM190.828 16.9551L190.924 20.9048H190.566C190.397 19.9145 189.98 19.1193 189.316 18.5193C188.658 17.9134 187.944 17.6105 187.175 17.6105C186.581 17.6105 186.109 17.7707 185.76 18.0911C185.416 18.4057 185.244 18.7698 185.244 19.1834C185.244 19.4455 185.305 19.6786 185.428 19.8825C185.597 20.1563 185.867 20.4271 186.24 20.6951C186.514 20.8874 187.146 21.2282 188.136 21.7175C189.523 22.3991 190.458 23.0428 190.941 23.6487C191.419 24.2545 191.658 24.9478 191.658 25.7284C191.658 26.7188 191.271 27.5722 190.496 28.2887C189.727 28.9995 188.748 29.3548 187.56 29.3548C187.187 29.3548 186.834 29.317 186.502 29.2412C186.17 29.1655 185.754 29.0228 185.253 28.813C184.973 28.6965 184.743 28.6383 184.562 28.6383C184.411 28.6383 184.251 28.6965 184.082 28.813C183.913 28.9296 183.776 29.1072 183.671 29.3461H183.348V24.872H183.671C183.928 26.1304 184.42 27.0916 185.148 27.7557C185.882 28.414 186.671 28.7431 187.516 28.7431C188.169 28.7431 188.687 28.5655 189.071 28.2101C189.462 27.8547 189.657 27.4411 189.657 26.9693C189.657 26.6896 189.581 26.4187 189.43 26.1566C189.284 25.8944 189.06 25.6468 188.757 25.4138C188.454 25.175 187.918 24.8662 187.149 24.4876C186.071 23.9574 185.297 23.506 184.825 23.1331C184.353 22.7603 183.989 22.3438 183.732 21.8835C183.482 21.4233 183.357 20.9165 183.357 20.3631C183.357 19.4193 183.703 18.6154 184.396 17.9513C185.09 17.2872 185.964 16.9551 187.018 16.9551C187.402 16.9551 187.775 17.0017 188.136 17.0949C188.41 17.1648 188.742 17.2959 189.133 17.4881C189.529 17.6746 189.805 17.7678 189.963 17.7678C190.114 17.7678 190.234 17.7212 190.321 17.628C190.408 17.5347 190.49 17.3105 190.566 16.9551H190.828ZM204.329 16.9551V21.0621H203.988C203.732 19.9902 203.254 19.1688 202.555 18.5979C201.856 18.027 201.063 17.7416 200.178 17.7416C199.438 17.7416 198.759 17.9542 198.142 18.3795C197.524 18.8047 197.073 19.3611 196.787 20.0485C196.42 20.9281 196.237 21.9068 196.237 22.9846C196.237 24.0448 196.371 25.0119 196.639 25.8857C196.907 26.7537 197.326 27.412 197.897 27.8606C198.468 28.3033 199.208 28.5247 200.117 28.5247C200.862 28.5247 201.544 28.3616 202.162 28.0353C202.785 27.7091 203.44 27.1469 204.128 26.3488V27.3712C203.464 28.0645 202.77 28.5684 202.048 28.883C201.331 29.1917 200.493 29.3461 199.531 29.3461C198.267 29.3461 197.143 29.0927 196.158 28.5858C195.18 28.079 194.422 27.3508 193.886 26.4013C193.356 25.4517 193.091 24.441 193.091 23.3691C193.091 22.2389 193.385 21.167 193.974 20.1533C194.568 19.1397 195.366 18.3532 196.368 17.794C197.376 17.2347 198.445 16.9551 199.575 16.9551C200.408 16.9551 201.288 17.1357 202.214 17.4969C202.75 17.7066 203.091 17.8115 203.236 17.8115C203.423 17.8115 203.583 17.7445 203.717 17.6105C203.857 17.4707 203.947 17.2522 203.988 16.9551H204.329ZM210.21 23.3778V27.0479C210.21 27.6538 210.242 28.0324 210.306 28.1839C210.376 28.3353 210.507 28.4693 210.699 28.5858C210.897 28.6965 211.162 28.7519 211.494 28.7519H211.887V29.0752H205.692V28.7519H206.085C206.429 28.7519 206.705 28.6907 206.915 28.5684C207.067 28.4868 207.183 28.347 207.265 28.1489C207.329 28.0091 207.361 27.6421 207.361 27.0479V19.2533C207.361 18.6474 207.329 18.2688 207.265 18.1173C207.201 17.9658 207.07 17.8348 206.871 17.7241C206.679 17.6076 206.417 17.5493 206.085 17.5493H205.692V17.226H211.887V17.5493H211.494C211.15 17.5493 210.874 17.6105 210.664 17.7328C210.512 17.8144 210.393 17.9542 210.306 18.1523C210.242 18.2921 210.21 18.6591 210.21 19.2533V22.6088H214.395V19.2533C214.395 18.6474 214.363 18.2688 214.299 18.1173C214.235 17.9658 214.104 17.8348 213.906 17.7241C213.708 17.6076 213.443 17.5493 213.111 17.5493H212.726V17.226H218.913V17.5493H218.528C218.179 17.5493 217.902 17.6105 217.698 17.7328C217.547 17.8144 217.427 17.9542 217.34 18.1523C217.276 18.2921 217.244 18.6591 217.244 19.2533V27.0479C217.244 27.6538 217.276 28.0324 217.34 28.1839C217.404 28.3353 217.535 28.4693 217.733 28.5858C217.931 28.6965 218.196 28.7519 218.528 28.7519H218.913V29.0752H212.726V28.7519H213.111C213.46 28.7519 213.737 28.6907 213.941 28.5684C214.092 28.4868 214.212 28.347 214.299 28.1489C214.363 28.0091 214.395 27.6421 214.395 27.0479V23.3778H210.21ZM226.157 17.06C228.045 16.9901 229.577 17.5406 230.753 18.7115C231.936 19.8825 232.527 21.3476 232.527 23.1069C232.527 24.6099 232.087 25.9323 231.208 27.0741C230.043 28.5888 228.397 29.3461 226.271 29.3461C224.138 29.3461 222.49 28.6237 221.325 27.179C220.404 26.0372 219.944 24.6827 219.944 23.1156C219.944 21.3563 220.541 19.8912 221.735 18.7202C222.936 17.5435 224.409 16.9901 226.157 17.06ZM226.262 17.6192C225.178 17.6192 224.354 18.1726 223.789 19.2795C223.329 20.1883 223.099 21.4932 223.099 23.1943C223.099 25.2158 223.454 26.71 224.165 27.6771C224.66 28.3528 225.353 28.6907 226.244 28.6907C226.844 28.6907 227.345 28.5451 227.747 28.2538C228.26 27.881 228.659 27.2867 228.945 26.4712C229.23 25.6498 229.373 24.5808 229.373 23.2642C229.373 21.6971 229.227 20.5262 228.936 19.7514C228.645 18.9707 228.272 18.4202 227.817 18.0998C227.369 17.7794 226.85 17.6192 226.262 17.6192ZM240.086 17.06C241.973 16.9901 243.506 17.5406 244.682 18.7115C245.865 19.8825 246.456 21.3476 246.456 23.1069C246.456 24.6099 246.016 25.9323 245.137 27.0741C243.972 28.5888 242.326 29.3461 240.2 29.3461C238.067 29.3461 236.419 28.6237 235.254 27.179C234.333 26.0372 233.873 24.6827 233.873 23.1156C233.873 21.3563 234.47 19.8912 235.664 18.7202C236.864 17.5435 238.338 16.9901 240.086 17.06ZM240.191 17.6192C239.107 17.6192 238.283 18.1726 237.718 19.2795C237.258 20.1883 237.028 21.4932 237.028 23.1943C237.028 25.2158 237.383 26.71 238.094 27.6771C238.589 28.3528 239.282 28.6907 240.173 28.6907C240.773 28.6907 241.274 28.5451 241.676 28.2538C242.189 27.881 242.588 27.2867 242.874 26.4712C243.159 25.6498 243.302 24.5808 243.302 23.2642C243.302 21.6971 243.156 20.5262 242.865 19.7514C242.573 18.9707 242.201 18.4202 241.746 18.0998C241.298 17.7794 240.779 17.6192 240.191 17.6192ZM258.402 24.9157L257.956 29.0752H247.435V28.7519H247.828C248.172 28.7519 248.449 28.6907 248.658 28.5684C248.81 28.4868 248.926 28.347 249.008 28.1489C249.072 28.0091 249.104 27.6421 249.104 27.0479V19.2533C249.104 18.6474 249.072 18.2688 249.008 18.1173C248.944 17.9658 248.813 17.8348 248.615 17.7241C248.422 17.6076 248.16 17.5493 247.828 17.5493H247.435V17.226H253.753V17.5493H253.237C252.893 17.5493 252.617 17.6105 252.407 17.7328C252.256 17.8144 252.136 17.9542 252.049 18.1523C251.985 18.2921 251.953 18.6591 251.953 19.2533V26.8032C251.953 27.4091 251.988 27.7965 252.058 27.9654C252.127 28.1285 252.264 28.2509 252.468 28.3324C252.614 28.3849 252.966 28.4111 253.526 28.4111H254.513C255.142 28.4111 255.666 28.3004 256.086 28.079C256.505 27.8577 256.867 27.5081 257.169 27.0304C257.478 26.5527 257.769 25.8478 258.043 24.9157H258.402Z"
          fill="black"/>
    <path d="M76.9193 36.5561C77.8657 36.5561 78.6849 36.9164 79.3768 37.637C80.0723 38.354 80.42 39.2502 80.42 40.3257C80.42 41.4335 80.0705 42.353 79.3714 43.0844C78.6724 43.8157 77.8263 44.1813 76.8333 44.1813C75.8295 44.1813 74.9852 43.8246 74.3005 43.1112C73.6193 42.3978 73.2788 41.4747 73.2788 40.3419C73.2788 39.1839 73.6731 38.2393 74.4618 37.5079C75.1465 36.8734 75.9657 36.5561 76.9193 36.5561ZM76.8171 36.9487C76.1647 36.9487 75.6413 37.1907 75.2469 37.6746C74.7558 38.2769 74.5102 39.1588 74.5102 40.3203C74.5102 41.5106 74.7647 42.4265 75.2738 43.0682C75.6646 43.5558 76.1808 43.7996 76.8225 43.7996C77.5072 43.7996 78.0719 43.5325 78.5164 42.9983C78.9645 42.4642 79.1886 41.6217 79.1886 40.4709C79.1886 39.2233 78.943 38.293 78.4519 37.68C78.0575 37.1925 77.5126 36.9487 76.8171 36.9487ZM83.1034 37.1208V39.9869H84.4316C84.7363 39.9869 84.9586 39.9206 85.0984 39.788C85.2418 39.6517 85.3368 39.3847 85.3834 38.9867H85.5824V41.455H85.3834C85.3798 41.1718 85.3422 40.9638 85.2705 40.8312C85.2024 40.6986 85.1056 40.6 84.9801 40.5354C84.8582 40.4673 84.6754 40.4333 84.4316 40.4333H83.1034V42.7241C83.1034 43.0933 83.1267 43.3371 83.1733 43.4554C83.2091 43.545 83.2844 43.6221 83.3991 43.6866C83.5569 43.7727 83.7218 43.8157 83.8939 43.8157H84.1574V44.0146H81.0277V43.8157H81.2858C81.5869 43.8157 81.8056 43.7279 81.9418 43.5522C82.0279 43.4375 82.0709 43.1614 82.0709 42.7241V38.0134C82.0709 37.6442 82.0476 37.4004 82.001 37.2821C81.9651 37.1925 81.8917 37.1154 81.7805 37.0509C81.6264 36.9648 81.4615 36.9218 81.2858 36.9218H81.0277V36.7228H86.4535L86.5234 38.3253H86.3352C86.242 37.9847 86.1327 37.7356 86.0072 37.5778C85.8853 37.4165 85.7329 37.3 85.5501 37.2283C85.3709 37.1566 85.0912 37.1208 84.7112 37.1208H83.1034ZM96.106 36.7228L96.1867 38.4329H95.9824C95.9429 38.1317 95.8891 37.9166 95.821 37.7876C95.7099 37.5796 95.5611 37.4273 95.3747 37.3305C95.1919 37.2301 94.9499 37.1799 94.6488 37.1799H93.6217V42.7509C93.6217 43.1991 93.6701 43.4787 93.7668 43.5898C93.9031 43.7404 94.1128 43.8157 94.396 43.8157H94.6488V44.0146H91.5567V43.8157H91.8148C92.1231 43.8157 92.3418 43.7225 92.4709 43.5361C92.5498 43.4213 92.5892 43.1596 92.5892 42.7509V37.1799H91.7127C91.3721 37.1799 91.1301 37.205 90.9867 37.2552C90.8003 37.3233 90.6408 37.4542 90.5081 37.6478C90.3755 37.8413 90.2966 38.103 90.2715 38.4329H90.0672L90.1532 36.7228H96.106ZM98.7679 37.1208V40.0031H100.37C100.786 40.0031 101.064 39.9403 101.204 39.8149C101.39 39.65 101.494 39.3596 101.516 38.9437H101.715V41.4819H101.516C101.466 41.127 101.415 40.8993 101.365 40.7989C101.301 40.6735 101.195 40.5749 101.048 40.5032C100.901 40.4315 100.675 40.3956 100.37 40.3956H98.7679V42.7993C98.7679 43.122 98.7822 43.3192 98.8109 43.3909C98.8396 43.459 98.8898 43.5145 98.9615 43.5576C99.0332 43.597 99.1694 43.6167 99.3701 43.6167H100.607C101.019 43.6167 101.319 43.588 101.505 43.5307C101.691 43.4733 101.871 43.3604 102.043 43.1919C102.265 42.9696 102.493 42.6344 102.726 42.1863H102.941L102.312 44.0146H96.6922V43.8157H96.9503C97.1224 43.8157 97.2855 43.7745 97.4396 43.692C97.5544 43.6346 97.6314 43.5486 97.6709 43.4339C97.7139 43.3192 97.7354 43.0844 97.7354 42.7294V37.9919C97.7354 37.5294 97.6888 37.2444 97.5956 37.1369C97.4665 36.9935 97.2514 36.9218 96.9503 36.9218H96.6922V36.7228H102.312L102.392 38.3199H102.183C102.107 37.9363 102.023 37.6728 101.93 37.5294C101.84 37.386 101.706 37.2767 101.527 37.2014C101.383 37.1476 101.13 37.1208 100.768 37.1208H98.7679ZM107.694 39.9762L109.259 42.31C109.693 42.9553 110.014 43.364 110.222 43.5361C110.433 43.7045 110.7 43.7978 111.023 43.8157V44.0146H107.893V43.8157C108.101 43.8121 108.255 43.7906 108.356 43.7512C108.431 43.7189 108.492 43.6705 108.539 43.606C108.589 43.5378 108.614 43.4697 108.614 43.4016C108.614 43.3192 108.598 43.2367 108.566 43.1543C108.54 43.0933 108.442 42.9356 108.27 42.681L107.033 40.8097L105.506 42.7671C105.344 42.975 105.248 43.1148 105.215 43.1865C105.183 43.2546 105.167 43.3263 105.167 43.4016C105.167 43.5163 105.215 43.6113 105.312 43.6866C105.409 43.7619 105.594 43.8049 105.866 43.8157V44.0146H103.28V43.8157C103.462 43.7978 103.62 43.7601 103.753 43.7028C103.975 43.6095 104.187 43.4841 104.387 43.3263C104.588 43.1686 104.818 42.9266 105.076 42.6004L106.796 40.4279L105.361 38.3253C104.97 37.7553 104.638 37.3825 104.366 37.2068C104.093 37.0276 103.78 36.9326 103.425 36.9218V36.7228H106.796V36.9218C106.51 36.9326 106.312 36.9792 106.205 37.0616C106.101 37.1441 106.049 37.2355 106.049 37.3359C106.049 37.4685 106.135 37.6621 106.307 37.9166L107.426 39.589L108.722 37.9489C108.872 37.7553 108.964 37.6227 108.996 37.551C109.032 37.4793 109.05 37.4058 109.05 37.3305C109.05 37.2552 109.028 37.1889 108.985 37.1315C108.931 37.0562 108.863 37.0043 108.781 36.9756C108.698 36.9433 108.528 36.9254 108.27 36.9218V36.7228H110.856V36.9218C110.652 36.9326 110.485 36.9648 110.356 37.0186C110.163 37.101 109.985 37.2122 109.824 37.352C109.663 37.4918 109.435 37.7499 109.141 38.1263L107.694 39.9762ZM116.196 41.5733H113.373L112.878 42.7241C112.756 43.0073 112.695 43.2188 112.695 43.3586C112.695 43.4697 112.747 43.5683 112.851 43.6544C112.959 43.7368 113.188 43.7906 113.54 43.8157V44.0146H111.244V43.8157C111.548 43.7619 111.745 43.692 111.835 43.606C112.018 43.4339 112.22 43.0844 112.443 42.5574L115.008 36.5561H115.196L117.734 42.6219C117.938 43.1094 118.123 43.4267 118.288 43.5737C118.457 43.7171 118.69 43.7978 118.987 43.8157V44.0146H116.11V43.8157C116.401 43.8013 116.596 43.7529 116.696 43.6705C116.8 43.588 116.852 43.4877 116.852 43.3694C116.852 43.2116 116.781 42.9625 116.637 42.6219L116.196 41.5733ZM116.046 41.1754L114.809 38.2285L113.54 41.1754H116.046ZM124.166 36.5561V39.0782H123.967C123.902 38.5942 123.786 38.2088 123.617 37.922C123.452 37.6352 123.216 37.4076 122.907 37.2391C122.599 37.0706 122.28 36.9863 121.95 36.9863C121.577 36.9863 121.269 37.101 121.025 37.3305C120.781 37.5563 120.659 37.8145 120.659 38.1048C120.659 38.3271 120.737 38.5297 120.891 38.7125C121.113 38.9814 121.642 39.3399 122.477 39.788C123.158 40.1536 123.622 40.4351 123.87 40.6322C124.121 40.8258 124.313 41.0553 124.445 41.3205C124.581 41.5858 124.65 41.8637 124.65 42.1541C124.65 42.7061 124.434 43.1829 124.004 43.5845C123.578 43.9824 123.027 44.1813 122.353 44.1813C122.142 44.1813 121.943 44.1652 121.756 44.133C121.645 44.115 121.414 44.0505 121.063 43.9394C120.715 43.8246 120.495 43.7673 120.401 43.7673C120.312 43.7673 120.24 43.7942 120.186 43.8479C120.136 43.9017 120.098 44.0129 120.073 44.1813H119.874V41.6808H120.073C120.167 42.2042 120.292 42.5968 120.45 42.8585C120.607 43.1166 120.848 43.3317 121.17 43.5038C121.497 43.6759 121.853 43.7619 122.24 43.7619C122.689 43.7619 123.042 43.6436 123.3 43.407C123.561 43.1704 123.692 42.8908 123.692 42.5681C123.692 42.3889 123.642 42.2078 123.542 42.025C123.445 41.8422 123.293 41.6719 123.085 41.5141C122.945 41.4066 122.563 41.1789 121.939 40.8312C121.316 40.4799 120.871 40.2002 120.606 39.9923C120.344 39.7844 120.145 39.555 120.009 39.304C119.873 39.0531 119.804 38.777 119.804 38.4759C119.804 37.9525 120.005 37.5026 120.407 37.1261C120.808 36.7461 121.319 36.5561 121.939 36.5561C122.326 36.5561 122.737 36.6511 123.171 36.8411C123.371 36.9308 123.513 36.9756 123.596 36.9756C123.689 36.9756 123.764 36.9487 123.821 36.8949C123.882 36.8375 123.931 36.7246 123.967 36.5561H124.166Z"
          fill="black"/>
    <path d="M265.499 40.6025H170.895V41.5604H265.499V40.6025Z" fill="black"/>
</svg>
